<svg width="40" height="89" viewBox="0 0 40 89" fill="none" xmlns="http://www.w3.org/2000/svg">
<path d="M19.8667 64C20.1405 64 20.4031 64.1054 20.5967 64.2929C20.7902 64.4805 20.899 64.7348 20.899 65L20.899 78.59L22.2306 77.29C22.425 77.1017 22.6886 76.996 22.9635 76.996C23.2384 76.996 23.502 77.1017 23.6964 77.29C23.8908 77.4783 24 77.7337 24 78C24 78.2663 23.8908 78.5217 23.6964 78.71L20.5996 81.71C20.4545 81.8488 20.2702 81.9428 20.0699 81.9802C19.8697 82.0175 19.6625 81.9966 19.4745 81.92C19.286 81.845 19.1246 81.7176 19.0107 81.5539C18.8968 81.3902 18.8355 81.1975 18.8345 81L18.8345 65C18.8345 64.7348 18.9432 64.4805 19.1368 64.2929C19.3304 64.1054 19.593 64 19.8667 64Z" fill="#909090"/>
<path d="M16.77 77C16.9058 76.9992 17.0405 77.0245 17.1663 77.0742C17.292 77.124 17.4064 77.1973 17.5029 77.29L20.5997 80.29C20.794 80.4783 20.9032 80.7337 20.9032 81C20.9032 81.1319 20.8764 81.2624 20.8243 81.3842C20.7722 81.5061 20.6959 81.6168 20.5997 81.71C20.5034 81.8032 20.3891 81.8772 20.2634 81.9277C20.1376 81.9781 20.0029 82.0041 19.8667 82.0041C19.5919 82.0041 19.3282 81.8983 19.1338 81.71L16.0371 78.71C15.9403 78.617 15.8635 78.5064 15.8111 78.3846C15.7587 78.2627 15.7317 78.132 15.7317 78C15.7317 77.868 15.7587 77.7373 15.8111 77.6154C15.8635 77.4936 15.9403 77.383 16.0371 77.29C16.1335 77.1973 16.2479 77.124 16.3737 77.0742C16.4995 77.0245 16.6341 76.9992 16.77 77Z" fill="#909090"/>
<path d="M26.126 43.636C26.126 44.464 25.982 45.208 25.694 45.868C25.394 46.516 24.986 47.026 24.47 47.398C23.942 47.77 23.336 47.962 22.652 47.974L22.652 46.228C23.24 46.168 23.738 45.928 24.146 45.508C24.542 45.076 24.74 44.452 24.74 43.636C24.74 42.856 24.548 42.244 24.164 41.8C23.768 41.344 23.264 41.116 22.652 41.116C22.172 41.116 21.782 41.248 21.482 41.512C21.182 41.776 20.954 42.106 20.798 42.502C20.642 42.898 20.474 43.432 20.294 44.104C20.078 44.932 19.862 45.598 19.646 46.102C19.43 46.594 19.094 47.02 18.638 47.38C18.17 47.728 17.546 47.902 16.766 47.902C16.082 47.902 15.476 47.728 14.948 47.38C14.42 47.032 14.012 46.546 13.724 45.922C13.436 45.286 13.292 44.56 13.292 43.744C13.292 42.568 13.586 41.608 14.174 40.864C14.762 40.108 15.542 39.682 16.514 39.586L16.514 41.386C16.034 41.446 15.614 41.698 15.254 42.142C14.882 42.586 14.696 43.174 14.696 43.906C14.696 44.59 14.876 45.148 15.236 45.58C15.584 46.012 16.076 46.228 16.712 46.228C17.168 46.228 17.54 46.102 17.828 45.85C18.116 45.586 18.338 45.268 18.494 44.896C18.638 44.512 18.806 43.978 18.998 43.294C19.226 42.466 19.454 41.8 19.682 41.296C19.898 40.792 20.24 40.36 20.708 40C21.164 39.64 21.788 39.46 22.58 39.46C23.192 39.46 23.768 39.622 24.308 39.946C24.848 40.27 25.286 40.75 25.622 41.386C25.958 42.022 26.126 42.772 26.126 43.636ZM21.05 37.6615C20.03 37.6615 19.142 37.4575 18.386 37.0495C17.618 36.6415 17.024 36.0775 16.604 35.3575C16.184 34.6255 15.974 33.7915 15.974 32.8555C15.974 31.6435 16.268 30.6475 16.856 29.8675C17.444 29.0755 18.26 28.5535 19.304 28.3015L19.304 30.0655C18.704 30.2335 18.23 30.5635 17.882 31.0555C17.534 31.5355 17.36 32.1355 17.36 32.8555C17.36 33.7915 17.684 34.5475 18.332 35.1235C18.968 35.6995 19.874 35.9875 21.05 35.9875C22.238 35.9875 23.156 35.6995 23.804 35.1235C24.452 34.5475 24.776 33.7915 24.776 32.8555C24.776 32.1355 24.608 31.5355 24.272 31.0555C23.936 30.5755 23.456 30.2455 22.832 30.0655L22.832 28.3015C23.84 28.5655 24.65 29.0935 25.262 29.8855C25.862 30.6775 26.162 31.6675 26.162 32.8555C26.162 33.7915 25.952 34.6255 25.532 35.3575C25.112 36.0775 24.518 36.6415 23.75 37.0495C22.982 37.4575 22.082 37.6615 21.05 37.6615ZM17.738 24.478C17.174 24.19 16.736 23.782 16.424 23.254C16.112 22.714 15.956 22.06 15.956 21.292L17.648 21.292L17.648 21.724C17.648 23.56 18.644 24.478 20.636 24.478L26 24.478L26 26.116L16.136 26.116L16.136 24.478L17.738 24.478ZM26.162 15.0991C26.162 16.0231 25.952 16.8631 25.532 17.6191C25.112 18.3631 24.518 18.9511 23.75 19.3831C22.97 19.8031 22.07 20.0131 21.05 20.0131C20.042 20.0131 19.154 19.7971 18.386 19.3651C17.606 18.9211 17.012 18.3211 16.604 17.5651C16.184 16.8091 15.974 15.9631 15.974 15.0271C15.974 14.0911 16.184 13.2451 16.604 12.4891C17.012 11.7331 17.6 11.1391 18.368 10.7071C19.136 10.2631 20.03 10.0411 21.05 10.0411C22.07 10.0411 22.97 10.2691 23.75 10.7251C24.518 11.1691 25.112 11.7751 25.532 12.5431C25.952 13.3111 26.162 14.1631 26.162 15.0991ZM24.722 15.0991C24.722 14.5111 24.584 13.9591 24.308 13.4431C24.032 12.9271 23.618 12.5131 23.066 12.2011C22.514 11.8771 21.842 11.7151 21.05 11.7151C20.258 11.7151 19.586 11.8711 19.034 12.1831C18.482 12.4951 18.074 12.9031 17.81 13.4071C17.534 13.9111 17.396 14.4571 17.396 15.0451C17.396 15.6451 17.534 16.1971 17.81 16.7011C18.074 17.1931 18.482 17.5891 19.034 17.8891C19.586 18.1891 20.258 18.3391 21.05 18.3391C21.854 18.3391 22.532 18.1951 23.084 17.9071C23.636 17.6071 24.05 17.2111 24.326 16.7191C24.59 16.2271 24.722 15.6871 24.722 15.0991ZM12.68 6.24944L26 6.24944L26 7.88744L12.68 7.88744L12.68 6.24944ZM12.68 1.81975L26 1.81975L26 3.45775L12.68 3.45775L12.68 1.81975Z" fill="#909090"/>
</svg>
